<svg id="logo-65" width="80" height="80" viewBox="0 0 50 50" fill="none" xmlns="http://www.w3.org/2000/svg"><path class="stroke" opacity="0.1" d="M48.61 25.1999C48.61 23.5044 47.2355 22.1299 45.54 22.1299C43.8445 22.1299 42.47 23.5044 42.47 25.1999C42.47 26.8954 43.8445 28.2699 45.54 28.2699C47.2355 28.2699 48.61 26.8954 48.61 25.1999Z" stroke="#a7a9be" stroke-width="0.56" stroke-miterlimit="10"></path><path class="stroke" opacity="0.18" d="M43.09 20.8601H43.08C40.6831 20.8601 38.74 22.8032 38.74 25.2001V25.2101C38.74 27.607 40.6831 29.5501 43.08 29.5501H43.09C45.4869 29.5501 47.43 27.607 47.43 25.2101V25.2001C47.43 22.8032 45.4869 20.8601 43.09 20.8601Z" stroke="#a7a9be" stroke-width="0.56" stroke-miterlimit="10"></path><path class="stroke" opacity="0.26" d="M46.23 25.2051C46.23 22.104 43.7161 19.5901 40.615 19.5901C37.5139 19.5901 35 22.104 35 25.2051C35 28.3062 37.5139 30.8201 40.615 30.8201C43.7161 30.8201 46.23 28.3062 46.23 25.2051Z" stroke="#a7a9be" stroke-width="0.56" stroke-miterlimit="10"></path><path class="stroke" opacity="0.35" d="M45.05 25.2101C45.05 21.4048 41.9653 18.3201 38.16 18.3201C34.3548 18.3201 31.27 21.4048 31.27 25.2101C31.27 29.0153 34.3548 32.1001 38.16 32.1001C41.9653 32.1001 45.05 29.0153 45.05 25.2101Z" stroke="#a7a9be" stroke-width="0.56" stroke-miterlimit="10"></path><path class="stroke" opacity="0.43" d="M43.85 25.21C43.85 20.7034 40.1967 17.05 35.69 17.05C31.1834 17.05 27.53 20.7034 27.53 25.21C27.53 29.7167 31.1834 33.37 35.69 33.37C40.1967 33.37 43.85 29.7167 43.85 25.21Z" stroke="#a7a9be" stroke-width="0.56" stroke-miterlimit="10"></path><path class="stroke" opacity="0.51" d="M42.66 25.21C42.66 20.002 38.438 15.78 33.23 15.78C28.0219 15.78 23.8 20.002 23.8 25.21C23.8 30.4181 28.0219 34.64 33.23 34.64C38.438 34.64 42.66 30.4181 42.66 25.21Z" stroke="#a7a9be" stroke-width="0.56" stroke-miterlimit="10"></path><path class="stroke" opacity="0.59" d="M30.77 14.5H30.76C24.8506 14.5 20.06 19.2906 20.06 25.2V25.21C20.06 31.1194 24.8506 35.91 30.76 35.91H30.77C36.6794 35.91 41.47 31.1194 41.47 25.21V25.2C41.47 19.2906 36.6794 14.5 30.77 14.5Z" stroke="#a7a9be" stroke-width="0.56" stroke-miterlimit="10"></path><path class="stroke" opacity="0.67" d="M28.3 13.23H28.29C21.6792 13.23 16.32 18.5891 16.32 25.2V25.21C16.32 31.8208 21.6792 37.18 28.29 37.18H28.3C34.9109 37.18 40.27 31.8208 40.27 25.21V25.2C40.27 18.5891 34.9109 13.23 28.3 13.23Z" stroke="#a7a9be" stroke-width="0.56" stroke-miterlimit="10"></path><path class="stroke" opacity="0.75" d="M39.08 25.205C39.08 17.8899 33.15 11.96 25.835 11.96C18.52 11.96 12.59 17.8899 12.59 25.205C12.59 32.52 18.52 38.45 25.835 38.45C33.15 38.45 39.08 32.52 39.08 25.205Z" stroke="#a7a9be" stroke-width="0.56" stroke-miterlimit="10"></path><path class="stroke" opacity="0.84" d="M37.89 25.2099C37.89 17.1908 31.3892 10.6899 23.37 10.6899C15.3508 10.6899 8.84998 17.1908 8.84998 25.2099C8.84998 33.2291 15.3508 39.7299 23.37 39.7299C31.3892 39.7299 37.89 33.2291 37.89 25.2099Z" stroke="#a7a9be" stroke-width="0.56" stroke-miterlimit="10"></path><path class="stroke" opacity="0.92" d="M36.7 25.2099C36.7 16.4893 29.6306 9.41992 20.91 9.41992C12.1894 9.41992 5.12 16.4893 5.12 25.2099C5.12 33.9305 12.1894 40.9999 20.91 40.9999C29.6306 40.9999 36.7 33.9305 36.7 25.2099Z" stroke="#a7a9be" stroke-width="0.56" stroke-miterlimit="10"></path><path class="stroke" d="M35.5 25.1999C35.5 15.7779 27.862 8.13989 18.44 8.13989C9.01803 8.13989 1.38 15.7779 1.38 25.1999C1.38 34.6219 9.01803 42.2599 18.44 42.2599C27.862 42.2599 35.5 34.6219 35.5 25.1999Z" stroke="#a7a9be" stroke-width="0.56" stroke-miterlimit="10"></path></svg>